<svg version="1.2" xmlns="http://www.w3.org/2000/svg" viewBox="0 0 365 135" width="365" height="135">
	<title>5664478-ai</title>
	<style>
		.s0 { fill: #d9efff } 
		.s1 { fill: #f3fbff } 
		.s2 { mix-blend-mode: multiply;fill: #d9efff } 
	</style>
	<g id="OBJECTS">
		<g id="&lt;Group&gt;">
			<g id="&lt;Group&gt;">
				<g id="&lt;Group&gt;">
					<path id="&lt;Path&gt;" class="s0" d="m41.9 104.2c1.1-5.7 5.3-10.8 10.8-12.8 5.5-2 15.3-0.5 19.9 3.1-6.7-13.7 1.4-32.1 15.6-37.9 14.2-5.8 31.7 0.4 40.6 12.9 2-6.6 9.8-10.8 16.4-8.8-4.6-24 18-48.3 42.5-48.2 24.5 0.2 46 21.8 49 46.1 4.1-12.3 21.7-15.9 32.5-8.6 10.7 7.3 14.7 21.6 13.3 34.5 6.5-4.7 15.7-5.1 22.6-1 6.8 4.1 10.9 12.4 9.9 20.3l33 10.4h-332.9z"/>
					<path id="&lt;Path&gt;" class="s1" d="m88.2 88.8c0-4 5.4-6.8 8.7-4.4 0-4.2 3.4-7.8 7.3-9.1 3.9-1.2 8.3-0.6 12.2 0.6 7.3 2.2 13.9 6.5 18.9 12.1 1.3-4.7 7.2-7.6 11.8-5.8 2-8.9 8.9-16.4 17.5-19.1 8.6-2.7 18.6-0.4 25.2 5.7 4.8-5.2 14.4-9.6 21.3-8.4 7 1.2 13.1 6.1 15.9 12.5-4.1-0.5-8.5 1.3-11 4.6 8.8 0.4 17.5 4.1 23.9 10.2 0.7-5.1-1.3-10.5-5.3-13.8 8-5.6 20.4-3.5 26 4.5 7.4-4.3 19-1.8 22 6.3 1-0.6 2-1.2 2.9-1.9q-1.6 0.7-3 1.7c1.4-12.9-2.6-27.2-13.3-34.5-10.8-7.3-28.4-3.7-32.5 8.6-3-24.3-24.5-45.9-49-46.1-24.5-0.1-47.1 24.2-42.5 48.2-6.6-2-14.4 2.2-16.4 8.8-8.9-12.5-26.4-18.7-40.6-12.9-10.8 4.4-18.1 16.1-18 27.5 6.3-1.5 13.4 0 18 4.7z"/>
					<path id="&lt;Path&gt;" class="s2" d="m187.9 114.2c-5-3.5-9.7-7.4-14-11.8-16.1 9.2-37 9.1-53.1-0.1-1.8-1-3.7-2.2-5.8-1.9-1.4 0.2-2.6 1-3.8 1.7-8.9 5.6-20.5 6.5-30.3 2.6-2.7 3-7.6 3.8-11.1 1.8-3 3.3-6.8 5.9-11 7.7z"/>
					<path id="&lt;Path&gt;" class="s2" d="m325.3 114.2c-2.5-1-5.6-1.1-8.3-1.4-8-1-15-5.5-21.6-10.1-1.1-0.7-2.2-1.5-3.5-1.5-1.4 0-2.6 0.9-3.8 1.7-10.8 7.1-26.3 6.3-36.3-2-2.5 1.1-5.3 1.3-7.9 0.4-2.5 3.7-5.7 7-9.3 9.6q-2.5 1.8-5.2 3.2-0.2 0-0.3 0.1z"/>
				</g>
			</g>
		</g>
	</g>
</svg>