<svg version="1.2" xmlns="http://www.w3.org/2000/svg" viewBox="0 0 432 144" width="432" height="144">
	<title>5664478-ai</title>
	<style>
		.s0 { fill: #d9efff } 
		.s1 { fill: #f3fbff } 
		.s2 { mix-blend-mode: multiply;fill: #d9efff } 
	</style>
	<g id="OBJECTS">
		<g id="&lt;Group&gt;">
			<g id="&lt;Group&gt;">
				<g id="&lt;Group&gt;">
					<path id="&lt;Path&gt;" class="s0" d="m35.7 115.2c-3.4-4.2-0.9-11.2 4-13.7 4.8-2.6 12.7-1.2 17.7 0.9 1.3-10.2 8.5-19.4 18.1-23 9.5-3.6 25.6-2.7 33.3 4.1-0.2-15.6 10.9-30.6 25.8-35.2 14.9-4.6 32.4 1.6 41.1 14.6 1.1-4.6 7.7-6.7 11.2-3.5 6.7-26.9 33.3-47.3 61-46.9 27.7 0.4 53.7 21.7 59.6 48.7 7.6-7.2 20.6-6.3 29.1-0.2 8.6 6.2 13.4 16.4 16 26.6 6.8-6.3 18.2-5.1 25.6 0.4 7.5 5.6 11.9 14.2 15.7 22.7l32.1 14.2h-418.1z"/>
					<path id="&lt;Path&gt;" class="s1" d="m34.4 112.6c4.9-0.4 9.8 0.2 14.3 2 3.1-4.4 10.4-5 14.1-1 0.3-10.6 9.7-19.6 20.1-21.5 10.5-1.9 21.4 2.2 29.5 9-1.2-3.3 2.6-7.1 5.9-6-3.8-6.5 1.3-14.9 7.5-19.3 7-4.8 15.7-7.4 24.2-6.3 8.4 1.2 16.4 6.2 20.4 13.7 4-6.2 13.9-6.5 19.5-1.6-0.4-3.2 1.3-5.5 2.6-8.4 2.6-6.1 5.8-12.3 11.3-15.9 5.5-3.7 13.8-3.9 18 1.3-4.3 1-7.8 4.8-8.3 9.2 11.3-4.3 24.2-4.4 35.6-0.2-0.4-5.9-4.7-11.4-10.3-13.2 11.8-7.1 25.9-11.1 39.2-7.4 13.2 3.8 24.4 16.1 24.3 29.8 2.8-5.1 5-10.7 6.2-16.5q-0.5 0.5-1 0.9c-5.9-27-31.9-48.3-59.6-48.7-27.7-0.4-54.3 20-61 46.9-3.5-3.2-10.1-1.1-11.2 3.5-8.7-13-26.2-19.2-41.1-14.6-14.9 4.6-26 19.6-25.8 35.2-7.7-6.8-23.8-7.7-33.3-4.1-9.6 3.6-16.8 12.8-18.1 23-5-2.1-12.9-3.5-17.7-0.9-4 2.1-6.4 7.1-5.3 11.1z"/>
					<path id="&lt;Path&gt;" class="s2" d="m356.7 124.9c-3.7-1.9-7.2-4.3-10.4-7-17.2 5.8-36.4 0.8-53.9-4.3-3.3-0.9-6.7-1.9-8.9-4.2-15.3 7-34.2 6.9-49.5-0.1 4.9-1.8 8.4-6.2 8.7-10.9-15.9 5.1-33.7 5.7-50 1.5q6 4.2 12.1 8.4c-16.7 10.7-40 12.2-58.2 3.9-10 9.6-27.7 11.6-40.1 4.6-2.3 3.3-5.4 6-9.1 8.1z"/>
				</g>
			</g>
		</g>
	</g>
</svg>