<svg version="1.2" xmlns="http://www.w3.org/2000/svg" viewBox="0 0 568 157" width="568" height="157">
	<title>5664478-ai</title>
	<style>
		.s0 { fill: #d9efff } 
		.s1 { fill: #f3fbff } 
		.s2 { mix-blend-mode: multiply;fill: #d9efff } 
	</style>
	<g id="OBJECTS">
		<g id="&lt;Group&gt;">
			<g id="&lt;Group&gt;">
				<g id="&lt;Group&gt;">
					<path id="&lt;Path&gt;" class="s0" d="m66.3 127.1c-1.7-7.6 4.5-15.5 12-17.4 7.6-2 15.7 1 21.8 5.9-3.3-10.3 1.5-22.5 10.8-27.8 9.3-5.4 22.7-5.5 29.9 2.4 1.2-17.3 14.6-33.2 31.6-37.1 17-3.9 36.1 4.3 44.8 19.4-0.2-6.9 10.3-10.8 14.8-5.6 3.4-22.3 19.5-42.8 41.1-49.6 21.6-6.8 47.6 1.7 59.5 21 10.5-15.5 34.6-17.3 50.1-6.8 15.6 10.4 23.2 29.7 24.6 48.4 11.4-11.9 30.8-15 45.3-7.4 14.5 7.7 22.9 25.5 19.5 41.5 3.2-9.3 14.8-11.7 24.4-9.3 9.5 2.4 16.8 11 19.5 20.4l39.4 16h-527.7z"/>
					<path id="&lt;Path&gt;" class="s1" d="m126.7 109c0.3-3.2 2.8-5.8 5.6-7.3 6.5-3.4 15.2-2.2 20.5 2.9 1.6-6.1 2.8-13.5 6.7-18.5 2.2-2.9 4.8-5.5 7.7-7.5 6.4-4.3 14.6-5.7 22-3.6 7.4 2 13.8 7.4 17 14.4 0.8-4.7 7.4-7 10.9-3.8 2.1-4.5 7.3-7.3 12.2-6.7 4.9 0.7 9.1 4.7 10 9.6 2.8-10.5 6.9-19 15.4-25.8 8.4-6.9 21.7-8.7 30.1-1.8-9.6 0.3-16.8 8.6-22.6 16.3 20-7.4 42.9-6.8 62.4 1.8-1.3-9.7-8.2-18.3-17.3-21.7 8.5-5.7 20.4-6.1 28.7-0.2 8.6-9.1 20.8-14.6 32.9-11.1 12 3.4 21.5 15.5 20.5 28-5.3-2.1-11.4-1.9-16.6 0.5 14.6 2.9 27.4 13.5 33 27.3 3.2-3.4 3.7-9.1 1-13 14.7-10 36.3-4.5 45.4 10.7 6.6-2.2 14.5-2.1 20.1 1.4-1.8-11.8-9.1-22.8-19.7-28.4-14.5-7.6-33.9-4.5-45.3 7.4-1.4-18.7-9-38-24.6-48.4-15.5-10.5-39.6-8.7-50.1 6.8-11.9-19.3-37.9-27.8-59.5-21-21.6 6.8-37.7 27.3-41.1 49.6-4.5-5.2-15-1.3-14.8 5.6-8.7-15.1-27.8-23.3-44.8-19.4-17 3.9-30.4 19.8-31.6 37.1-7.2-7.9-20.6-7.8-29.9-2.4-6.4 3.7-10.7 10.6-11.6 17.9 9-3.1 19.4-2 27.4 3.3z"/>
					<path id="&lt;Path&gt;" class="s2" d="m481.5 141.1q-0.4-0.3-0.7-0.7c-1.2-1.4-2.4-3-4.1-3.8-2.3-1.1-4.9-0.5-7.4-0.1-11.7 2-24.1-0.9-33.7-7.9-17.8 9.6-39.5 7.5-55.3-5.1-13.6 7.1-30.9 6.7-44.2-1 6.3-2.2 11.2-7.8 12.5-14.2-15.2 6.8-32.8 8.1-48.9 3.8 2.6 4.6 8.3 7.2 13.5 6.2-8.2 7.6-19.7 11-30.8 10.9-11.2-0.1-22.2-3.1-32.4-7.4-5.1 1-9.4 4.2-14.2 5.8-5.5 1.8-11.4 1.4-17.1 0.6-10.4-1.5-20.5-4.2-30.2-8.2-1.1-0.4-2-0.2-2.9 0.7-15.2 14.2-39.1 18.2-58.1 9.8-5.4 3.3-12.7 3.3-18.1-0.2-3.1 4.2-7 7.8-11.3 10.8z"/>
				</g>
			</g>
		</g>
	</g>
</svg>