<svg version="1.2" xmlns="http://www.w3.org/2000/svg" viewBox="0 0 289 118" width="289" height="118">
	<title>5664478-ai</title>
	<style>
		.s0 { fill: #d9efff } 
		.s1 { fill: #f3fbff } 
		.s2 { mix-blend-mode: multiply;fill: #d9efff } 
	</style>
	<g id="OBJECTS">
		<g id="&lt;Group&gt;">
			<g id="&lt;Group&gt;">
				<g id="&lt;Group&gt;">
					<path id="&lt;Path&gt;" class="s0" d="m47.6 93.2c-5-9.1-1.6-21.9 7.2-27.3 8.9-5.3 21.8-2.5 27.5 6.1 0.5-4.2 3.5-7.8 7.7-8.9 0 0 1.7-0.5 1.7-0.5 0.5-0.4-1.6-16.8-1.1-19.2 1.3-6.4 3.5-9.7 7.9-14.4 11.7-12.4 34.2-20.1 50.6-13.5 15.6 6.1 22.8 23.9 26.7 40.1 5.8-12.7 24.4-16.2 35.9-8.3 11.5 8 15.5 24.2 11.4 37.6 3.6-4.1 7.7-5.9 13-4.5 5.2 1.4 9.5 5.9 10.6 11.3l21 10.6h-248.6z"/>
					<path id="&lt;Path&gt;" class="s1" d="m60.2 76.4c7.4 0.3 14.3 4.1 19.6 9.2 0.4-4 5.7-6.5 9-4.3-0.6-3.7 0.7-7.6 3.2-10.3 2.5-2.7 6.3-4.2 10-3.9-1.5-7.6-2.7-16.3 1.9-22.6 2.1-2.8 5.2-4.8 8.4-6.3 6.6-3.3 15.1-4.9 21-0.4 2.9-4.1 6.6-6 11.6-5.7 4.9 0.3 9.6 2.8 13 6.4 1.9 2 3.6 4.6 3.4 7.4 2.5-1.9 5.9-2.1 8.8-1 1.2 0.5 2.3 1.1 3.2 2-4.3-13.5-11.4-26.4-24.2-31.4-16.4-6.6-38.9 1.1-50.6 13.5-4.4 4.7-6.6 8-7.9 14.4-0.5 2.4 1.6 18.8 1.1 19.2 0 0-1.7 0.5-1.7 0.5-4.2 1.1-7.2 4.7-7.7 8.9-5.7-8.6-18.6-11.4-27.5-6.1-5.4 3.4-8.8 9.5-9.4 15.9 3.9-3.7 9.4-5.6 14.8-5.4z"/>
					<path id="&lt;Path&gt;" class="s1" d="m180.6 49.2q0.3-0.1 0.6-0.2 1.1-0.2 2.2-0.2c1.6 0 3.1 0.3 4.6 0.8 3.3 1.1 6.4 3.3 8.5 6.2 4.4 6 5.3 13.7 5.5 21.1-3.4-2.3-8.1-2.3-11.5 0 4.8 1.5 9.6 3 13.8 5.6 4.2 2.7 7.9 6.6 9.2 11.4 2.3-3.3 3.2-7.7 2.3-11.7 3.1 2.8 4.5 7.4 3.5 11.4 6.8-6.6 18.4-7.8 26.4-2.7q0.2-0.6 0.4-1.3c-1.7-4.4-5.5-8-10-9.2-5.3-1.4-9.4 0.4-13 4.5 4.1-13.4 0.1-29.6-11.4-37.6-9.2-6.3-23-5.3-31.1 1.9z"/>
					<path id="&lt;Path&gt;" class="s2" d="m87.9 102.3h114.3c-6.1-2.4-11.6-6.5-15.4-11.8-9.8 4.8-22.9 1.4-29.1-7.7 3.6-2.7 6.3-6.6 7.6-10.9-8.4 4.7-18.8 5.7-27.9 2.6 2.1 2.6 4.7 4.6 7.7 6-3.3 5.6-8.4 10.3-14.3 13.1-2.2 1.1-4.7 1.9-7.2 1.8-2.1-0.2-4-1-6-1.7-4.2-1.4-8.7-2-13.1-1.7-4.3 4.1-9.4 7.4-14.9 9.5q-0.8 0.3-1.7 0.8z"/>
				</g>
			</g>
		</g>
	</g>
</svg>