<svg id="ei9o53GHUwY1" xmlns="http://www.w3.org/2000/svg" xmlns:xlink="http://www.w3.org/1999/xlink" viewBox="0 0 1920 1080" shape-rendering="geometricPrecision" text-rendering="geometricPrecision" project-id="3e3510bfe6fd4c028dff9f1ea54f5df0" export-id="8e3096592363411f93d5d8015ad3100f" cached="false"><defs><linearGradient id="ei9o53GHUwY3-fill" x1="0.937139" y1="0" x2="0.937139" y2="1" spreadMethod="pad" gradientUnits="objectBoundingBox" gradientTransform="translate(0 0)"><stop id="ei9o53GHUwY3-fill-0" offset="0%" stop-color="#8e35bc"/><stop id="ei9o53GHUwY3-fill-1" offset="100%" stop-color="#ae81ff"/></linearGradient><linearGradient id="ei9o53GHUwY4-fill" x1="0.5" y1="0" x2="0.5" y2="1" spreadMethod="pad" gradientUnits="objectBoundingBox" gradientTransform="translate(0 0)"><stop id="ei9o53GHUwY4-fill-0" offset="0%" stop-color="#b066d6"/><stop id="ei9o53GHUwY4-fill-1" offset="100%" stop-color="#d6bfff"/></linearGradient><linearGradient id="ei9o53GHUwY5-fill" x1="0.17794" y1="0" x2="0.17794" y2="1" spreadMethod="pad" gradientUnits="objectBoundingBox" gradientTransform="translate(0 0)"><stop id="ei9o53GHUwY5-fill-0" offset="0%" stop-color="#ea9275"/><stop id="ei9o53GHUwY5-fill-1" offset="100%" stop-color="#fff"/></linearGradient><linearGradient id="ei9o53GHUwY6-fill" x1="0.5" y1="-0.185453" x2="0.5" y2="1" spreadMethod="pad" gradientUnits="objectBoundingBox" gradientTransform="translate(0 0)"><stop id="ei9o53GHUwY6-fill-0" offset="0%" stop-color="#ec8968"/><stop id="ei9o53GHUwY6-fill-1" offset="100%" stop-color="#fff"/></linearGradient></defs><path d="M0,900.178546l402.19269,66.391909l382.325824-48.0769L1047.796776,1080h414.377091l70.970662-95.114535l322.802044-82.417543L1920,856.680398L1920,1080L0,1081.039265v-180.860719Z" fill="#41274e" stroke-width="3.84"/><path d="M960,1030.672989l87.796776-45.787524l157.966958-18.31501l164.835086-34.340643l139.651948-52.655652l148.809452-6.868129l112.179434-20.604385l84.706919-52.655653L1920,813.18225v43.498148l-64.053427,45.787524-322.802044,82.417543L1462.173867,1080h-414.377091L960,1030.672989Z" fill="url(#ei9o53GHUwY3-fill)" stroke-width="3.84"/><path d="M236.711567,939.722997L871.916022,872.70603l400.202075-81.403622L1451.278328,684.27162l260.596699,30.247832l130.29835-41.881613L1920,684.27162l1.283089,128.910629-65.336516-13.736257-84.706919,57.234405L1659.06022,872.70603l-148.809452,6.868129-139.651948,52.655653-164.835086,36.630018-157.966958,16.025634L960,1030.672988L784.518514,918.493554L402.19269,968.85983L236.711567,939.722997Z" transform="translate(0 0.000001)" fill="url(#ei9o53GHUwY4-fill)" stroke-width="3.84"/><path d="M0,626.102715l329.781815,34.90134l179.160231,53.515394l262.923456,34.901343l155.892669-25.594317l93.070249,25.594317l93.07025-9.307025l91.865062,39.554856l124.523269-22.948594-58.168906,34.582376L871.91602,872.706027L236.711567,939.722993L-0.000002,900.178542L0,626.102715Z" transform="translate(.000002 0.000004)" fill="url(#ei9o53GHUwY5-fill)" stroke-width="3.84"/><path d="M609.733698,728.091176l141.190999-22.878748l109.357544-44.20837L978.94681,684.271619l134.951862-67.475931l91.86506,34.901343l108.235976,9.307025l160.54618,11.633781l225.695356,11.633781l219.758754-28.283621v28.283622l-77.826623-11.633782-130.29835,41.881613-260.596699-30.247831-120.991325,72.448411-124.523269,26.192825-91.86506-42.799087-93.070252,9.307025-93.070249-25.594314-155.892669,25.594314-162.131804-21.329617Z" transform="translate(.000002 0.000003)" fill="url(#ei9o53GHUwY6-fill)" stroke-width="3.84"/></svg>
