<svg
viewBox="0 0 253.4 295.7"
width="255"
height="300"
    xmlns="http://www.w3.org/2000/svg"
    xmlns:xlink="http://www.w3.org/1999/xlink">
    <polygon fill="#FCF6E1" points="242.6,44.3 253.4,10.7 219.8,0 209.1,33.4 171.2,21.3 148.5,92.4 73.4,68.4 26.5,214.9 173,261.8 219.9,115.3 219.9,115.3 " />
    <path d="M36.9,205.2c-0.6,0-1.1,0.2-1.6,0.5c-1.3,0.9-1.7,2.7-0.8,4c0.9,1.4,2.7,1.7,4,0.8s1.7-2.7,0.8-4 C38.8,205.7,37.9,205.2,36.9,205.2" />
    <path d="M59.4,239.1c-1.6,0-2.9,1.3-2.9,2.9c0,1.6,1.3,2.9,2.9,2.9s2.9-1.3,2.9-2.9c0-0.6-0.2-1.1-0.5-1.6 C61.3,239.5,60.4,239.1,59.4,239.1" />
    <path d="M48.1,222.1c-0.6,0-1.1,0.2-1.6,0.5c-1.3,0.9-1.7,2.7-0.8,4s2.7,1.7,4,0.8s1.7-2.7,0.8-4 C50,222.6,49.1,222.1,48.1,222.1" />
    <path d="M25.6,188.3c-1.6,0.1-2.8,1.5-2.7,3.1c0.1,1.5,1.3,2.6,2.7,2.7c1.6-0.1,2.8-1.5,2.7-3.1 C28.3,189.5,27.1,188.4,25.6,188.3" />
    <path d="M3.1,154.4c-1.6-0.1-3,1.1-3.1,2.7c-0.1,1.6,1.1,3,2.7,3.1c0.1,0,0.2,0,0.3,0c0.6,0,1.1-0.2,1.6-0.5 c1.3-0.9,1.7-2.7,0.8-4C5,154.9,4.1,154.4,3.1,154.4" />
    <path d="M70.7,256c-1.6,0-2.9,1.3-2.9,2.9c0,0.6,0.2,1.1,0.5,1.6c0.9,1.3,2.7,1.7,4,0.8c1.3-0.9,1.7-2.7,0.8-4 C72.6,256.5,71.6,256,70.7,256" />
    <path d="M93.2,289.8c-1.6-0.1-3,1.1-3.1,2.7c-0.1,1.6,1.1,3,2.7,3.1c0.1,0,0.2,0,0.3,0c0.6,0,1.1-0.2,1.6-0.5 c1.3-0.9,1.7-2.7,0.8-4C95.1,290.3,94.2,289.8,93.2,289.8" />
    <path d="M14.3,171.4c-0.6,0-1.1,0.2-1.6,0.5c-1.3,0.9-1.7,2.7-0.8,4c0.5,0.8,1.4,1.3,2.4,1.3c0.6,0,1.1-0.2,1.6-0.5 c1.3-0.9,1.7-2.7,0.8-4C16.2,171.8,15.3,171.4,14.3,171.4" />
    <path d="M81.9,272.9c-1.6,0.1-2.8,1.5-2.7,3.1c0.1,1.5,1.3,2.6,2.7,2.7c0.6,0,1.1-0.2,1.6-0.5c1.3-0.9,1.7-2.7,0.8-4 C83.8,273.4,82.9,272.9,81.9,272.9" />
    <path d="M28.7,161c-0.6,0-1.1,0.2-1.6,0.5c-1.3,0.9-1.7,2.7-0.8,4c0.5,0.8,1.4,1.3,2.4,1.3c0.6,0,1.1-0.2,1.6-0.5 c1.3-0.9,1.7-2.7,0.8-4C30.6,161.5,29.7,161,28.7,161" />
    <path d="M6.2,127.2c-1.6-0.1-3,1.1-3.1,2.7c-0.1,1.6,1.1,3,2.7,3.1c0.1,0,0.2,0,0.3,0c0.6,0,1.1-0.2,1.6-0.5 c1.3-0.9,1.7-2.7,0.8-4C8.1,127.7,7.2,127.2,6.2,127.2" />
    <path d="M17.5,144.1c-0.6,0-1.1,0.2-1.6,0.5c-1.3,0.9-1.7,2.7-0.8,4c0.9,1.4,2.7,1.7,4,0.8s1.7-2.7,0.8-4 C19.4,144.6,18.5,144.1,17.5,144.1" />
    <path d="M38.1,178.7c-0.8,0.7-1.2,1.8-0.9,2.9L38.1,178.7" />
    <path class="GYCkgd" d="M40,178c-0.6,0-1.1,0.2-1.6,0.5c-0.1,0.1-0.2,0.1-0.3,0.2l-0.9,2.9c0.1,0.3,0.2,0.6,0.4,0.9 c0.9,1.3,2.7,1.7,4,0.8c1.3-0.9,1.7-2.7,0.8-4C41.9,178.5,41,178,40,178" />
    <path d="M96.3,262.6c-1.6,0-2.9,1.3-2.9,2.9s1.3,2.9,2.9,2.9c1.6,0,2.9-1.3,2.9-2.9c0-0.6-0.2-1.1-0.5-1.6 C98.2,263.1,97.3,262.6,96.3,262.6" />
    <path d="M85.1,245.7c-0.6,0-1.1,0.2-1.6,0.5c-1.3,0.9-1.7,2.7-0.8,4c0.5,0.8,1.4,1.3,2.4,1.3c1.6,0,2.9-1.3,2.9-2.9 c0-0.6-0.2-1.1-0.5-1.6C87,246.2,86,245.7,85.1,245.7" />
    <path class="GYCkgd" d="M62.5,211.8c-1.6-0.1-3,1.1-3.1,2.7c-0.1,1.6,1.1,3,2.7,3.1c0.1,0,0.2,0,0.3,0c0.6,0,1.1-0.2,1.6-0.5 c1.3-0.9,1.7-2.7,0.8-4C64.4,212.3,63.5,211.8,62.5,211.8" />
    <path d="M71.9,229.4c-1.2,1-1.4,2.9-0.3,4.1s2.9,1.4,4.1,0.3c0.8-0.7,1.2-1.8,0.9-2.9L71.9,229.4" />
    <path class="GYCkgd" d="M73.8,228.8c-0.6,0-1.1,0.2-1.6,0.5c-0.1,0.1-0.2,0.1-0.3,0.2l4.7,1.5C76.3,229.7,75.1,228.8,73.8,228.8" />
    <path class="GYCkgd" d="M51.3,194.9c-1.6,0-2.9,1.3-2.9,2.9c0,0.6,0.2,1.1,0.5,1.6c0.9,1.3,2.7,1.7,4,0.8c1.3-0.9,1.7-2.7,0.8-4 C53.2,195.4,52.2,194.9,51.3,194.9" />
    <path d="M20.4,116.6c-0.6,0-1.1,0.2-1.6,0.5c-1.3,0.9-1.7,2.7-0.8,4s2.7,1.7,4,0.8c1.3-0.9,1.7-2.7,0.8-4 C22.3,117.1,21.4,116.6,20.4,116.6" />
    <path d="M31.7,133.5c-0.6,0-1.1,0.2-1.6,0.5c-1.3,0.9-1.7,2.7-0.8,4c0.5,0.8,1.4,1.3,2.4,1.3c0.6,0,1.1-0.2,1.6-0.5 c1.3-0.9,1.7-2.7,0.8-4C33.6,134,32.7,133.5,31.7,133.5" />
    <path d="M43,150.5c-1.6,0-2.9,1.3-2.9,2.9c0,1.6,1.3,2.9,2.9,2.9s2.9-1.3,2.9-2.9c0-0.6-0.2-1.1-0.5-1.6 C44.9,151,44,150.5,43,150.5" />
    <path d="M9.2,99.7c-0.6,0-1.1,0.2-1.6,0.5c-1.3,0.9-1.7,2.7-0.8,4c0.5,0.8,1.4,1.3,2.4,1.3c1.6-0.1,2.8-1.5,2.7-3.1 C11.8,101,10.7,99.8,9.2,99.7" />
    <path class="GYCkgd" d="M88,218.2c-0.6,0-1.1,0.2-1.6,0.5c-1.3,0.9-1.7,2.7-0.8,4s2.7,1.7,4,0.8s1.7-2.7,0.8-4 C89.9,218.7,89,218.2,88,218.2" />
    <path class="GYCkgd" d="M54.2,167.4c-1.6,0-2.9,1.3-2.9,2.9s1.3,2.9,2.9,2.9c0.6,0,1.2-0.2,1.6-0.5c1.3-0.9,1.7-2.7,0.8-4 C56.1,167.9,55.2,167.4,54.2,167.4" />
    <path class="GYCkgd" d="M76.8,201.3c-0.6,0-1.1,0.2-1.6,0.5c-1.3,0.9-1.7,2.7-0.8,4c0.9,1.3,2.7,1.7,4,0.8c1.3-0.9,1.7-2.7,0.8-4 C78.7,201.8,77.7,201.3,76.8,201.3" />
    <path d="M96.5,237.3c-0.4,1.5,0.4,3.1,2,3.6c1.5,0.4,3-0.4,3.5-1.8L96.5,237.3" />
    <path class="GYCkgd" d="M99.3,235.1c-0.6,0-1.1,0.2-1.6,0.5c-0.6,0.4-1,1-1.2,1.7l5.5,1.8c0.6-1.5-0.1-3.2-1.6-3.8 C100.1,235.1,99.7,235.1,99.3,235.1" />
    <path class="GYCkgd" d="M65.5,184.4c-1.6,0.1-2.8,1.5-2.7,3.1c0.1,1.5,1.3,2.6,2.7,2.7c0.6,0,1.1-0.2,1.6-0.5c1.3-0.9,1.7-2.7,0.8-4 C67.4,184.8,66.5,184.3,65.5,184.4" />
    <path d="M23.5,89.4c-0.6,0-1.1,0.2-1.6,0.5c-1.3,0.9-1.7,2.7-0.8,4s2.7,1.7,4,0.8s1.7-2.7,0.8-4 C25.4,89.9,24.5,89.4,23.5,89.4" />
    <path d="M12.3,72.5c-0.6,0-1.1,0.2-1.6,0.5c-1.3,0.9-1.7,2.7-0.8,4c0.9,1.3,2.7,1.7,4,0.8s1.7-2.7,0.8-4 C14.2,73,13.3,72.5,12.3,72.5" />
    <path d="M46.1,123.2c-1.6,0-2.9,1.3-2.9,2.9c0,1.6,1.3,2.9,2.9,2.9c1.6,0,2.9-1.3,2.9-2.9c0-0.6-0.2-1.1-0.5-1.6 C48,123.7,47.1,123.2,46.1,123.2" />
    <path d="M34.8,106.3c-1.6,0-2.9,1.3-2.9,2.9c0,0.6,0.2,1.1,0.5,1.6c0.9,1.3,2.7,1.7,4,0.8c1.3-0.9,1.7-2.7,0.8-4 C36.7,106.8,35.8,106.3,34.8,106.3" />
    <path class="GYCkgd" d="M57.4,140.2c-1.6,0.1-2.8,1.5-2.7,3.1c0.1,1.5,1.3,2.6,2.7,2.7c0.6,0,1.1-0.2,1.6-0.5c1.3-0.9,1.7-2.7,0.8-4 C59.3,140.7,58.3,140.2,57.4,140.2" />
    <path class="GYCkgd" d="M79.9,174c-0.6,0-1.1,0.2-1.6,0.5c-1.3,0.9-1.7,2.7-0.8,4s2.7,1.7,4,0.8s1.7-2.7,0.8-4 C81.8,174.5,80.9,174,79.9,174" />
    <path class="GYCkgd" d="M91.2,191c-1.6,0.1-2.8,1.5-2.7,3.1c0.1,1.5,1.3,2.6,2.7,2.7c0.6,0,1.1-0.2,1.6-0.5c1.3-0.9,1.7-2.7,0.8-4 C93.1,191.4,92.2,191,91.2,191" />
    <path class="GYCkgd" d="M102.4,207.9c-0.6,0-1.1,0.2-1.6,0.5c-1.3,0.9-1.7,2.7-0.8,4s2.7,1.7,4,0.8c1.3-0.9,1.7-2.7,0.8-4 C104.3,208.4,103.4,207.9,102.4,207.9" />
    <path class="GYCkgd" d="M68.6,157.1c-0.6,0-1.1,0.2-1.6,0.5c-1.3,0.9-1.7,2.7-0.8,4c0.9,1.3,2.7,1.7,4,0.8c1.3-0.9,1.7-2.7,0.8-4 C70.5,157.6,69.6,157.1,68.6,157.1" />
</svg>
