<svg class="lrty4b" viewBox="0 0 703.5 158"><path fill="#F3D2CF" d="M175.9,20c-14.9,0.1-26,34.2-34.7,61.9c-11.7,37.3-23.9,75.8-52.9,75.9h-0.1c-29,0-41.4-39.4-53.3-76.5 C25.9,53.7,14.9,20.1,0,20V0c29,0.1,41.3,38.2,53.3,75.3c8.9,27.6,20,63,34.9,63c14.9-0.1,25.7-34.6,34.4-62.3 c11.8-37.2,24.2-75.9,53.3-76"></path><path fill="#F3D2CF" d="M351.7,20c-14.9,0.1-26,34.2-34.7,61.9c-11.7,37.3-23.9,75.8-52.9,75.9H264c-29,0-41.4-39.4-53.3-76.5 c-9-27.6-20-61.2-34.9-61.3V0c29,0.1,41.3,38.2,53.3,75.3c8.9,27.6,20,63,34.9,63c14.9-0.1,25.7-34.6,34.4-62.3 c11.8-37.2,24.2-75.9,53.3-76"></path><path fill="#F3D2CF" d="M527.6,20c-14.9,0.1-26,34.2-34.7,61.9c-11.7,37.3-23.9,75.8-52.9,75.9h-0.1c-29,0-41.4-39.4-53.3-76.5 c-9-27.6-20-61.2-34.9-61.3V0c29,0.1,41.3,38.2,53.3,75.3c8.9,27.6,20,63,34.9,63c14.9-0.1,25.7-34.6,34.4-62.3 c11.8-37.2,24.2-75.9,53.3-76"></path><path fill="#F3D2CF" d="M703.5,20c-14.9,0.1-26,34.2-34.7,61.9c-11.7,37.3-23.9,75.8-52.9,75.9h-0.1c-29,0-41.4-39.4-53.3-76.5 c-9-27.6-20-61.2-34.9-61.3V0c29,0.1,41.3,38.2,53.3,75.3c8.9,27.6,20,63,34.9,63c14.9-0.1,25.7-34.6,34.4-62.3 C662,38.8,674.4,0.1,703.5,0"></path></svg>
